name analog
datacolumns 19
datarows 42
range 0.6875 0.708
endheader
time	ground_force_vx	ground_force_vy	ground_force_vz	ground_force_px	ground_force_py	ground_force_pz	l_ground_force_vx	l_ground_force_vy	l_ground_force_vz	l_ground_force_px	l_ground_force_py	l_ground_force_pz	ground_torque_x	ground_torque_y	ground_torque_z	l_ground_torque_x	l_ground_torque_y	l_ground_torque_z
0.6875	-0.0	-0.0	-0.0	-2.7655258178710938	-8.754213333129883	-767.6078491210938	-0.0	-0.0	-0.0	-0.0	-0.0	-0.0	-0.0	-0.0	-0.0	-0.0	-0.0	-0.0
0.6880000000000001	-0.0	-0.0	-0.0	-2.230262756347656	-8.378257751464844	-765.9451293945312	-0.0	-0.0	-0.0	-0.0	-0.0	-0.0	-0.0	-0.0	-0.0	-0.0	-0.0	-0.0
0.6885	-0.0	-0.0	-0.0	-1.7078264951705933	-8.072420120239258	-767.0560302734375	-0.0	-0.0	-0.0	-0.0	-0.0	-0.0	-0.0	-0.0	-0.0	-0.0	-0.0	-0.0
0.6890000000000001	-0.0	-0.0	-0.0	-1.4400551319122314	-8.340030670166016	-769.0239868164062	-0.0	-0.0	-0.0	-0.0	-0.0	-0.0	-0.0	-0.0	-0.0	-0.0	-0.0	-0.0
0.6895	-0.0	-0.0	-0.0	-0.3378205001354217	-7.200558185577393	-769.2259521484375	-0.0	-0.0	-0.0	-0.0	-0.0	-0.0	-0.0	-0.0	-0.0	-0.0	-0.0	-0.0
0.6900000000000001	-0.0	-0.0	-0.0	0.0639843940734863	-6.6910810470581055	-768.6942749023438	-0.0	-0.0	-0.0	-0.0	-0.0	-0.0	-0.0	-0.0	-0.0	-0.0	-0.0	-0.0
0.6905	-0.0	-0.0	-0.0	0.1658808588981628	-5.996794700622559	-769.8826293945312	-0.0	-0.0	-0.0	-0.0	-0.0	-0.0	-0.0	-0.0	-0.0	-0.0	-0.0	-0.0
0.6910000000000001	-0.0	-0.0	-0.0	0.694983184337616	-6.002877235412598	-771.84619140625	-0.0	-0.0	-0.0	-0.0	-0.0	-0.0	-0.0	-0.0	-0.0	-0.0	-0.0	-0.0
0.6915	-0.0	-0.0	-0.0	0.5600526332855225	-5.953161239624023	-773.4395751953125	-0.0	-0.0	-0.0	-0.0	-0.0	-0.0	-0.0	-0.0	-0.0	-0.0	-0.0	-0.0
0.6920000000000001	-0.0	-0.0	-0.0	1.0581985712051392	-5.418479919433594	-774.681640625	-0.0	-0.0	-0.0	-0.0	-0.0	-0.0	-0.0	-0.0	-0.0	-0.0	-0.0	-0.0
0.6925	-0.0	-0.0	-0.0	1.2148828506469729	-4.527285099029541	-773.987060546875	-0.0	-0.0	-0.0	-0.0	-0.0	-0.0	-0.0	-0.0	-0.0	-0.0	-0.0	-0.0
0.6930000000000001	-0.0	-0.0	-0.0	2.1349613666534424	-3.832607269287109	-773.1349487304688	-0.0	-0.0	-0.0	-0.0	-0.0	-0.0	-0.0	-0.0	-0.0	-0.0	-0.0	-0.0
0.6935	-0.0	-0.0	-0.0	2.956060647964477	-3.660398006439209	-774.828857421875	-0.0	-0.0	-0.0	-0.0	-0.0	-0.0	-0.0	-0.0	-0.0	-0.0	-0.0	-0.0
0.6940000000000001	-0.0	-0.0	-0.0	3.687733411788941	-3.368910074234009	-772.6861572265625	-0.0	-0.0	-0.0	-0.0	-0.0	-0.0	-0.0	-0.0	-0.0	-0.0	-0.0	-0.0
0.6945	-0.0	-0.0	-0.0	4.431155204772949	-2.044020652770996	-771.5796508789062	-0.0	-0.0	-0.0	-0.0	-0.0	-0.0	-0.0	-0.0	-0.0	-0.0	-0.0	-0.0
0.6950000000000001	-0.0	-0.0	-0.0	4.73410701751709	-2.020275831222534	-769.108154296875	-0.0	-0.0	-0.0	-0.0	-0.0	-0.0	-0.0	-0.0	-0.0	-0.0	-0.0	-0.0
0.6955	-0.0	-0.0	-0.0	5.269333839416504	-1.2478256225585938	-765.4580078125	-0.0	-0.0	-0.0	-0.0	-0.0	-0.0	-0.0	-0.0	-0.0	-0.0	-0.0	-0.0
0.6960000000000001	-0.0	-0.0	-0.0	6.072191715240479	-0.8432765007019043	-765.6708374023438	-0.0	-0.0	-0.0	-0.0	-0.0	-0.0	-0.0	-0.0	-0.0	-0.0	-0.0	-0.0
0.6965	-0.0	-0.0	-0.0	5.70947265625	-0.9570829272270204	-763.26806640625	-0.0	-0.0	-0.0	-0.0	-0.0	-0.0	-0.0	-0.0	-0.0	-0.0	-0.0	-0.0
0.6970000000000001	-0.0	-0.0	-0.0	5.234386920928955	-1.1064820289611816	-762.9606323242188	-0.0	-0.0	-0.0	-0.0	-0.0	-0.0	-0.0	-0.0	-0.0	-0.0	-0.0	-0.0
0.6975	-0.0	-0.0	-0.0	4.8115973472595215	-0.5174872875213623	-764.9649658203125	-0.0	-0.0	-0.0	-0.0	-0.0	-0.0	-0.0	-0.0	-0.0	-0.0	-0.0	-0.0
0.6980000000000001	-0.0	-0.0	-0.0	4.4605255126953125	-0.4946649372577667	-765.603271484375	-0.0	-0.0	-0.0	-0.0	-0.0	-0.0	-0.0	-0.0	-0.0	-0.0	-0.0	-0.0
0.6985	-0.0	-0.0	-0.0	4.333402156829834	-0.049267865717411	-764.9652099609375	-0.0	-0.0	-0.0	-0.0	-0.0	-0.0	-0.0	-0.0	-0.0	-0.0	-0.0	-0.0
0.6990000000000001	-0.0	-0.0	-0.0	3.942252397537232	0.5574153065681458	-765.6492309570312	-0.0	-0.0	-0.0	-0.0	-0.0	-0.0	-0.0	-0.0	-0.0	-0.0	-0.0	-0.0
0.6995	-0.0	-0.0	-0.0	3.6745121479034415	0.7411532402038574	-765.9358520507812	-0.0	-0.0	-0.0	-0.0	-0.0	-0.0	-0.0	-0.0	-0.0	-0.0	-0.0	-0.0
0.7000000000000001	-0.0	-0.0	-0.0	3.562826871871948	1.2366485595703125	-764.9434814453125	-0.0	-0.0	-0.0	-0.0	-0.0	-0.0	-0.0	-0.0	-0.0	-0.0	-0.0	-0.0
0.7005	-0.0	-0.0	-0.0	3.2282495498657227	1.2644819021224976	-766.0692749023438	-0.0	-0.0	-0.0	-0.0	-0.0	-0.0	-0.0	-0.0	-0.0	-0.0	-0.0	-0.0
0.7010000000000001	-0.0	-0.0	-0.0	3.3173508644104004	1.114569902420044	-768.938232421875	-0.0	-0.0	-0.0	-0.0	-0.0	-0.0	-0.0	-0.0	-0.0	-0.0	-0.0	-0.0
0.7015	-0.0	-0.0	-0.0	3.5793936252593994	0.1782608032226562	-770.328857421875	-0.0	-0.0	-0.0	-0.0	-0.0	-0.0	-0.0	-0.0	-0.0	-0.0	-0.0	-0.0
0.7020000000000001	-0.0	-0.0	-0.0	4.5953450202941895	-0.4619878530502319	-770.5523681640625	-0.0	-0.0	-0.0	-0.0	-0.0	-0.0	-0.0	-0.0	-0.0	-0.0	-0.0	-0.0
0.7025	-0.0	-0.0	-0.0	4.911991596221924	-1.4206775426864624	-769.3331298828125	-0.0	-0.0	-0.0	-0.0	-0.0	-0.0	-0.0	-0.0	-0.0	-0.0	-0.0	-0.0
0.7030000000000001	-0.0	-0.0	-0.0	4.644326210021973	-2.627780675888061	-772.7576904296875	-0.0	-0.0	-0.0	-0.0	-0.0	-0.0	-0.0	-0.0	-0.0	-0.0	-0.0	-0.0
0.7035	-0.0	-0.0	-0.0	5.290136337280273	-3.2818093299865723	-772.7153930664062	-0.0	-0.0	-0.0	-0.0	-0.0	-0.0	-0.0	-0.0	-0.0	-0.0	-0.0	-0.0
0.704	-0.0	-0.0	-0.0	6.066314697265625	-3.811398983001709	-773.464111328125	-0.0	-0.0	-0.0	-0.0	-0.0	-0.0	-0.0	-0.0	-0.0	-0.0	-0.0	-0.0
0.7045	-0.0	-0.0	-0.0	6.333946228027344	-3.476085662841797	-771.7398681640625	-0.0	-0.0	-0.0	-0.0	-0.0	-0.0	-0.0	-0.0	-0.0	-0.0	-0.0	-0.0
0.705	-0.0	-0.0	-0.0	6.779998779296875	-3.0252020359039307	-770.3475952148438	-0.0	-0.0	-0.0	-0.0	-0.0	-0.0	-0.0	-0.0	-0.0	-0.0	-0.0	-0.0
0.7055	-0.0	-0.0	-0.0	6.879609107971191	-2.0396087169647217	-769.5791015625	-0.0	-0.0	-0.0	-0.0	-0.0	-0.0	-0.0	-0.0	-0.0	-0.0	-0.0	-0.0
0.706	-0.0	-0.0	-0.0	7.582893371582031	0.1937446296215057	-770.6591186523438	-0.0	-0.0	-0.0	-0.0	-0.0	-0.0	-0.0	-0.0	-0.0	-0.0	-0.0	-0.0
0.7065	-0.0	-0.0	-0.0	7.771573543548584	2.180128574371338	-769.5587768554688	-0.0	-0.0	-0.0	-0.0	-0.0	-0.0	-0.0	-0.0	-0.0	-0.0	-0.0	-0.0
0.707	-0.0	-0.0	-0.0	6.219270706176758	3.9115607738494873	-769.205810546875	-0.0	-0.0	-0.0	-0.0	-0.0	-0.0	-0.0	-0.0	-0.0	-0.0	-0.0	-0.0
0.7075	-0.0	-0.0	-0.0	4.975561618804932	4.323729038238525	-767.813232421875	-0.0	-0.0	-0.0	-0.0	-0.0	-0.0	-0.0	-0.0	-0.0	-0.0	-0.0	-0.0
0.708	-0.0	-0.0	-0.0	3.56842041015625	4.823079109191895	-769.4398803710938	-0.0	-0.0	-0.0	-0.0	-0.0	-0.0	-0.0	-0.0	-0.0	-0.0	-0.0	-0.0
